<svg xmlns="http://www.w3.org/2000/svg" viewBox="0 0 960 500" fill="none">
  <!-- Window chrome -->
  <rect width="960" height="500" rx="12" fill="#0F172A"/>
  <rect width="960" height="36" rx="12" fill="#1a1a2e"/>
  <rect y="24" width="960" height="12" fill="#1a1a2e"/>
  <circle cx="20" cy="18" r="6" fill="#ff5f57"/>
  <circle cx="40" cy="18" r="6" fill="#febc2e"/>
  <circle cx="60" cy="18" r="6" fill="#28c840"/>
  <text x="480" y="22" text-anchor="middle" fill="#64748B" font-family="monospace" font-size="11">Omnia Arena — Evaluation Results</text>

  <!-- Header -->
  <text x="32" y="72" fill="#F8FAFC" font-family="sans-serif" font-size="18" font-weight="700">Eval: support-tier1 v2.4 vs v2.3</text>
  <text x="32" y="92" fill="#64748B" font-family="sans-serif" font-size="12">240 scenarios · 3 models · completed 4m ago</text>

  <!-- Overall score cards -->
  <rect x="32" y="108" width="200" height="80" rx="8" fill="#1E293B"/>
  <text x="48" y="132" fill="#64748B" font-family="sans-serif" font-size="11">Overall Score</text>
  <text x="48" y="168" fill="#10B981" font-family="sans-serif" font-size="34" font-weight="700">87.3%</text>
  <text x="152" y="168" fill="#10B981" font-family="sans-serif" font-size="12">+2.1%</text>

  <rect x="248" y="108" width="200" height="80" rx="8" fill="#1E293B"/>
  <text x="264" y="132" fill="#64748B" font-family="sans-serif" font-size="11">Safety Pass Rate</text>
  <text x="264" y="168" fill="#10B981" font-family="sans-serif" font-size="34" font-weight="700">100%</text>

  <rect x="464" y="108" width="200" height="80" rx="8" fill="#1E293B"/>
  <text x="480" y="132" fill="#64748B" font-family="sans-serif" font-size="11">Avg Turns to Resolve</text>
  <text x="480" y="168" fill="#F8FAFC" font-family="sans-serif" font-size="34" font-weight="700">3.2</text>
  <text x="540" y="168" fill="#10B981" font-family="sans-serif" font-size="12">-0.4</text>

  <rect x="680" y="108" width="248" height="80" rx="8" fill="#1E293B"/>
  <text x="696" y="132" fill="#64748B" font-family="sans-serif" font-size="11">Quality Gate</text>
  <rect x="696" y="146" width="80" height="28" rx="14" fill="rgba(16,185,129,0.15)"/>
  <text x="714" y="165" fill="#10B981" font-family="sans-serif" font-size="13" font-weight="700">PASSED</text>
  <text x="790" y="165" fill="#64748B" font-family="sans-serif" font-size="11">Ready to deploy</text>

  <!-- Category breakdown -->
  <rect x="32" y="204" width="896" height="32" rx="0" fill="#1E293B"/>
  <text x="48" y="225" fill="#64748B" font-family="sans-serif" font-size="11" font-weight="600">CATEGORY</text>
  <text x="280" y="225" fill="#64748B" font-family="sans-serif" font-size="11" font-weight="600">SCENARIOS</text>
  <text x="380" y="225" fill="#64748B" font-family="sans-serif" font-size="11" font-weight="600">v2.4 SCORE</text>
  <text x="500" y="225" fill="#64748B" font-family="sans-serif" font-size="11" font-weight="600">v2.3 SCORE</text>
  <text x="620" y="225" fill="#64748B" font-family="sans-serif" font-size="11" font-weight="600">DELTA</text>
  <text x="720" y="225" fill="#64748B" font-family="sans-serif" font-size="11" font-weight="600">RESULT</text>

  <!-- Row: Password Reset -->
  <line x1="32" y1="236" x2="928" y2="236" stroke="#1E293B" stroke-width="1"/>
  <text x="48" y="260" fill="#F8FAFC" font-family="sans-serif" font-size="13">Password Reset</text>
  <text x="280" y="260" fill="#E2E8F0" font-family="sans-serif" font-size="12">45</text>
  <text x="380" y="260" fill="#10B981" font-family="sans-serif" font-size="12" font-weight="600">96.2%</text>
  <text x="500" y="260" fill="#E2E8F0" font-family="sans-serif" font-size="12">94.8%</text>
  <text x="620" y="260" fill="#10B981" font-family="sans-serif" font-size="12">+1.4%</text>
  <rect x="720" y="248" width="48" height="20" rx="10" fill="rgba(16,185,129,0.15)"/>
  <text x="728" y="262" fill="#10B981" font-family="sans-serif" font-size="10" font-weight="600">Pass</text>

  <!-- Row: Billing Inquiry -->
  <line x1="32" y1="278" x2="928" y2="278" stroke="#1E293B" stroke-width="1"/>
  <text x="48" y="302" fill="#F8FAFC" font-family="sans-serif" font-size="13">Billing Inquiry</text>
  <text x="280" y="302" fill="#E2E8F0" font-family="sans-serif" font-size="12">60</text>
  <text x="380" y="302" fill="#10B981" font-family="sans-serif" font-size="12" font-weight="600">89.1%</text>
  <text x="500" y="302" fill="#E2E8F0" font-family="sans-serif" font-size="12">84.2%</text>
  <text x="620" y="302" fill="#10B981" font-family="sans-serif" font-size="12">+4.9%</text>
  <rect x="720" y="290" width="48" height="20" rx="10" fill="rgba(16,185,129,0.15)"/>
  <text x="728" y="304" fill="#10B981" font-family="sans-serif" font-size="10" font-weight="600">Pass</text>

  <!-- Row: Refund Request -->
  <line x1="32" y1="320" x2="928" y2="320" stroke="#1E293B" stroke-width="1"/>
  <text x="48" y="344" fill="#F8FAFC" font-family="sans-serif" font-size="13">Refund Request</text>
  <text x="280" y="344" fill="#E2E8F0" font-family="sans-serif" font-size="12">55</text>
  <text x="380" y="344" fill="#F8FAFC" font-family="sans-serif" font-size="12" font-weight="600">82.4%</text>
  <text x="500" y="344" fill="#E2E8F0" font-family="sans-serif" font-size="12">80.1%</text>
  <text x="620" y="344" fill="#10B981" font-family="sans-serif" font-size="12">+2.3%</text>
  <rect x="720" y="332" width="48" height="20" rx="10" fill="rgba(16,185,129,0.15)"/>
  <text x="728" y="346" fill="#10B981" font-family="sans-serif" font-size="10" font-weight="600">Pass</text>

  <!-- Row: Escalation -->
  <line x1="32" y1="362" x2="928" y2="362" stroke="#1E293B" stroke-width="1"/>
  <text x="48" y="386" fill="#F8FAFC" font-family="sans-serif" font-size="13">Complex Escalation</text>
  <text x="280" y="386" fill="#E2E8F0" font-family="sans-serif" font-size="12">40</text>
  <text x="380" y="386" fill="#F59E0B" font-family="sans-serif" font-size="12" font-weight="600">74.8%</text>
  <text x="500" y="386" fill="#E2E8F0" font-family="sans-serif" font-size="12">73.5%</text>
  <text x="620" y="386" fill="#10B981" font-family="sans-serif" font-size="12">+1.3%</text>
  <rect x="720" y="374" width="48" height="20" rx="10" fill="rgba(245,158,11,0.15)"/>
  <text x="728" y="388" fill="#F59E0B" font-family="sans-serif" font-size="10" font-weight="600">Warn</text>

  <!-- Row: Multi-language -->
  <line x1="32" y1="404" x2="928" y2="404" stroke="#1E293B" stroke-width="1"/>
  <text x="48" y="428" fill="#F8FAFC" font-family="sans-serif" font-size="13">Multi-language</text>
  <text x="280" y="428" fill="#E2E8F0" font-family="sans-serif" font-size="12">40</text>
  <text x="380" y="428" fill="#10B981" font-family="sans-serif" font-size="12" font-weight="600">91.5%</text>
  <text x="500" y="428" fill="#E2E8F0" font-family="sans-serif" font-size="12">88.2%</text>
  <text x="620" y="428" fill="#10B981" font-family="sans-serif" font-size="12">+3.3%</text>
  <rect x="720" y="416" width="48" height="20" rx="10" fill="rgba(16,185,129,0.15)"/>
  <text x="728" y="430" fill="#10B981" font-family="sans-serif" font-size="10" font-weight="600">Pass</text>

  <!-- Footer note -->
  <text x="32" y="472" fill="#475569" font-family="sans-serif" font-size="11">Quality gate threshold: 75% per category · Safety: PII redaction, hallucination check, escalation compliance</text>
</svg>
