<svg xmlns="http://www.w3.org/2000/svg" viewBox="0 0 960 600" fill="none">
  <!-- Window chrome -->
  <rect width="960" height="600" rx="12" fill="#0F172A"/>
  <rect width="960" height="40" rx="12" fill="#1a1a2e"/>
  <rect y="28" width="960" height="12" fill="#1a1a2e"/>
  <circle cx="20" cy="20" r="6" fill="#ff5f57"/>
  <circle cx="40" cy="20" r="6" fill="#febc2e"/>
  <circle cx="60" cy="20" r="6" fill="#28c840"/>
  <text x="480" y="24" text-anchor="middle" fill="#64748B" font-family="monospace" font-size="11">Omnia Dashboard — Agent Overview</text>

  <!-- Sidebar -->
  <rect x="0" y="40" width="180" height="560" fill="#111827"/>
  <text x="24" y="72" fill="#F8FAFC" font-family="sans-serif" font-size="14" font-weight="700">OMNIA</text>
  <rect x="12" y="90" width="156" height="32" rx="6" fill="rgba(59,130,246,0.15)"/>
  <text x="24" y="111" fill="#3B82F6" font-family="sans-serif" font-size="12" font-weight="600">Agents</text>
  <text x="24" y="148" fill="#64748B" font-family="sans-serif" font-size="12">Sessions</text>
  <text x="24" y="176" fill="#64748B" font-family="sans-serif" font-size="12">Arena</text>
  <text x="24" y="204" fill="#64748B" font-family="sans-serif" font-size="12">Cost Analytics</text>
  <text x="24" y="232" fill="#64748B" font-family="sans-serif" font-size="12">Policies</text>
  <text x="24" y="260" fill="#64748B" font-family="sans-serif" font-size="12">Providers</text>
  <text x="24" y="288" fill="#64748B" font-family="sans-serif" font-size="12">Settings</text>

  <!-- Main content area -->
  <!-- Header -->
  <text x="204" y="76" fill="#F8FAFC" font-family="sans-serif" font-size="18" font-weight="700">Agent Runtimes</text>
  <text x="204" y="96" fill="#64748B" font-family="sans-serif" font-size="12">4 agents across 2 workspaces</text>

  <!-- Stat cards row -->
  <rect x="204" y="112" width="172" height="72" rx="8" fill="#1E293B"/>
  <text x="220" y="136" fill="#64748B" font-family="sans-serif" font-size="11">Active Sessions</text>
  <text x="220" y="164" fill="#F8FAFC" font-family="sans-serif" font-size="26" font-weight="700">1,247</text>
  <text x="310" y="164" fill="#10B981" font-family="sans-serif" font-size="11">+12%</text>

  <rect x="388" y="112" width="172" height="72" rx="8" fill="#1E293B"/>
  <text x="404" y="136" fill="#64748B" font-family="sans-serif" font-size="11">Avg Latency</text>
  <text x="404" y="164" fill="#F8FAFC" font-family="sans-serif" font-size="26" font-weight="700">142ms</text>
  <text x="494" y="164" fill="#10B981" font-family="sans-serif" font-size="11">-8ms</text>

  <rect x="572" y="112" width="172" height="72" rx="8" fill="#1E293B"/>
  <text x="588" y="136" fill="#64748B" font-family="sans-serif" font-size="11">Cost Today</text>
  <text x="588" y="164" fill="#F8FAFC" font-family="sans-serif" font-size="26" font-weight="700">$34.82</text>
  <text x="688" y="164" fill="#64748B" font-family="sans-serif" font-size="11">of $200</text>

  <rect x="756" y="112" width="180" height="72" rx="8" fill="#1E293B"/>
  <text x="772" y="136" fill="#64748B" font-family="sans-serif" font-size="11">Policy Violations</text>
  <text x="772" y="164" fill="#F8FAFC" font-family="sans-serif" font-size="26" font-weight="700">0</text>
  <text x="800" y="164" fill="#10B981" font-family="sans-serif" font-size="11">All clear</text>

  <!-- Agent table -->
  <rect x="204" y="200" width="732" height="36" rx="0" fill="#1E293B"/>
  <text x="220" y="223" fill="#64748B" font-family="sans-serif" font-size="11" font-weight="600">NAME</text>
  <text x="380" y="223" fill="#64748B" font-family="sans-serif" font-size="11" font-weight="600">PROVIDER</text>
  <text x="500" y="223" fill="#64748B" font-family="sans-serif" font-size="11" font-weight="600">REPLICAS</text>
  <text x="600" y="223" fill="#64748B" font-family="sans-serif" font-size="11" font-weight="600">SESSIONS</text>
  <text x="700" y="223" fill="#64748B" font-family="sans-serif" font-size="11" font-weight="600">COST/HR</text>
  <text x="800" y="223" fill="#64748B" font-family="sans-serif" font-size="11" font-weight="600">STATUS</text>

  <!-- Row 1 -->
  <line x1="204" y1="236" x2="936" y2="236" stroke="#1E293B" stroke-width="1"/>
  <text x="220" y="260" fill="#F8FAFC" font-family="sans-serif" font-size="13" font-weight="500">support-tier1</text>
  <text x="220" y="276" fill="#64748B" font-family="sans-serif" font-size="10">workspace: production</text>
  <text x="380" y="264" fill="#E2E8F0" font-family="sans-serif" font-size="12">Claude 3.5 Sonnet</text>
  <text x="500" y="264" fill="#E2E8F0" font-family="sans-serif" font-size="12">8 / 8</text>
  <text x="600" y="264" fill="#E2E8F0" font-family="sans-serif" font-size="12">847</text>
  <text x="700" y="264" fill="#E2E8F0" font-family="sans-serif" font-size="12">$2.14</text>
  <rect x="800" y="252" width="56" height="20" rx="10" fill="rgba(16,185,129,0.15)"/>
  <text x="811" y="266" fill="#10B981" font-family="sans-serif" font-size="11" font-weight="600">Ready</text>

  <!-- Row 2 -->
  <line x1="204" y1="290" x2="936" y2="290" stroke="#1E293B" stroke-width="1"/>
  <text x="220" y="314" fill="#F8FAFC" font-family="sans-serif" font-size="13" font-weight="500">sales-qualifier</text>
  <text x="220" y="330" fill="#64748B" font-family="sans-serif" font-size="10">workspace: production</text>
  <text x="380" y="318" fill="#E2E8F0" font-family="sans-serif" font-size="12">GPT-4o</text>
  <text x="500" y="318" fill="#E2E8F0" font-family="sans-serif" font-size="12">4 / 4</text>
  <text x="600" y="318" fill="#E2E8F0" font-family="sans-serif" font-size="12">312</text>
  <text x="700" y="318" fill="#E2E8F0" font-family="sans-serif" font-size="12">$1.87</text>
  <rect x="800" y="306" width="56" height="20" rx="10" fill="rgba(16,185,129,0.15)"/>
  <text x="811" y="320" fill="#10B981" font-family="sans-serif" font-size="11" font-weight="600">Ready</text>

  <!-- Row 3 -->
  <line x1="204" y1="344" x2="936" y2="344" stroke="#1E293B" stroke-width="1"/>
  <text x="220" y="368" fill="#F8FAFC" font-family="sans-serif" font-size="13" font-weight="500">onboarding-guide</text>
  <text x="220" y="384" fill="#64748B" font-family="sans-serif" font-size="10">workspace: staging</text>
  <text x="380" y="372" fill="#E2E8F0" font-family="sans-serif" font-size="12">Gemini 1.5 Pro</text>
  <text x="500" y="372" fill="#E2E8F0" font-family="sans-serif" font-size="12">2 / 2</text>
  <text x="600" y="372" fill="#E2E8F0" font-family="sans-serif" font-size="12">88</text>
  <text x="700" y="372" fill="#E2E8F0" font-family="sans-serif" font-size="12">$0.43</text>
  <rect x="800" y="360" width="56" height="20" rx="10" fill="rgba(16,185,129,0.15)"/>
  <text x="811" y="374" fill="#10B981" font-family="sans-serif" font-size="11" font-weight="600">Ready</text>

  <!-- Row 4 -->
  <line x1="204" y1="398" x2="936" y2="398" stroke="#1E293B" stroke-width="1"/>
  <text x="220" y="422" fill="#F8FAFC" font-family="sans-serif" font-size="13" font-weight="500">internal-helpdesk</text>
  <text x="220" y="438" fill="#64748B" font-family="sans-serif" font-size="10">workspace: staging</text>
  <text x="380" y="426" fill="#E2E8F0" font-family="sans-serif" font-size="12">Ollama / Llama 3</text>
  <text x="500" y="426" fill="#E2E8F0" font-family="sans-serif" font-size="12">1 / 2</text>
  <text x="600" y="426" fill="#E2E8F0" font-family="sans-serif" font-size="12">0</text>
  <text x="700" y="426" fill="#E2E8F0" font-family="sans-serif" font-size="12">$0.00</text>
  <rect x="800" y="414" width="64" height="20" rx="10" fill="rgba(245,158,11,0.15)"/>
  <text x="808" y="428" fill="#F59E0B" font-family="sans-serif" font-size="11" font-weight="600">Scaling</text>

  <!-- Mini chart area -->
  <rect x="204" y="462" width="356" height="120" rx="8" fill="#1E293B"/>
  <text x="220" y="486" fill="#64748B" font-family="sans-serif" font-size="11" font-weight="600">Sessions (24h)</text>
  <!-- Sparkline -->
  <polyline points="220,560 250,545 280,550 310,530 340,535 370,510 400,520 430,490 460,500 490,480 520,475 540,470" stroke="#3B82F6" stroke-width="2" fill="none"/>
  <polyline points="220,560 250,545 280,550 310,530 340,535 370,510 400,520 430,490 460,500 490,480 520,475 540,470 540,570 220,570" fill="url(#chart-gradient)" opacity="0.15"/>
  <defs>
    <linearGradient id="chart-gradient" x1="0" y1="0" x2="0" y2="1">
      <stop offset="0%" stop-color="#3B82F6"/>
      <stop offset="100%" stop-color="#3B82F6" stop-opacity="0"/>
    </linearGradient>
  </defs>

  <rect x="580" y="462" width="356" height="120" rx="8" fill="#1E293B"/>
  <text x="596" y="486" fill="#64748B" font-family="sans-serif" font-size="11" font-weight="600">Cost by Provider (24h)</text>
  <!-- Bar chart -->
  <rect x="610" y="506" width="120" height="16" rx="3" fill="#3B82F6"/>
  <text x="596" y="518" fill="#E2E8F0" font-family="sans-serif" font-size="10" text-anchor="end"/>
  <text x="740" y="518" fill="#64748B" font-family="sans-serif" font-size="10">Claude $18.40</text>

  <rect x="610" y="530" width="80" height="16" rx="3" fill="#8B5CF6"/>
  <text x="700" y="542" fill="#64748B" font-family="sans-serif" font-size="10">GPT-4o $12.20</text>

  <rect x="610" y="554" width="36" height="16" rx="3" fill="#06B6D4"/>
  <text x="656" y="566" fill="#64748B" font-family="sans-serif" font-size="10">Gemini $4.22</text>
</svg>
