<svg xmlns="http://www.w3.org/2000/svg" viewBox="0 0 960 540" fill="none">
  <!-- Window chrome -->
  <rect width="960" height="540" rx="12" fill="#111217"/>
  <rect width="960" height="36" rx="12" fill="#1a1a2e"/>
  <rect y="24" width="960" height="12" fill="#1a1a2e"/>
  <circle cx="20" cy="18" r="6" fill="#ff5f57"/>
  <circle cx="40" cy="18" r="6" fill="#febc2e"/>
  <circle cx="60" cy="18" r="6" fill="#28c840"/>
  <text x="480" y="22" text-anchor="middle" fill="#64748B" font-family="monospace" font-size="11">Grafana — Omnia Agent Observability</text>

  <!-- Top bar -->
  <rect x="0" y="36" width="960" height="32" fill="#181b1f"/>
  <text x="16" y="56" fill="#F59E0B" font-family="sans-serif" font-size="12" font-weight="600">Omnia / Agent Performance</text>
  <text x="880" y="56" fill="#64748B" font-family="sans-serif" font-size="11">Last 6 hours</text>

  <!-- Row 1: 3 stat panels -->
  <rect x="16" y="80" width="300" height="80" rx="6" fill="#1E293B"/>
  <text x="32" y="102" fill="#64748B" font-family="sans-serif" font-size="11">Request Rate</text>
  <text x="32" y="140" fill="#10B981" font-family="sans-serif" font-size="32" font-weight="700">342</text>
  <text x="120" y="140" fill="#64748B" font-family="sans-serif" font-size="14">req/s</text>

  <rect x="330" y="80" width="300" height="80" rx="6" fill="#1E293B"/>
  <text x="346" y="102" fill="#64748B" font-family="sans-serif" font-size="11">P99 Latency</text>
  <text x="346" y="140" fill="#3B82F6" font-family="sans-serif" font-size="32" font-weight="700">289</text>
  <text x="425" y="140" fill="#64748B" font-family="sans-serif" font-size="14">ms</text>

  <rect x="644" y="80" width="300" height="80" rx="6" fill="#1E293B"/>
  <text x="660" y="102" fill="#64748B" font-family="sans-serif" font-size="11">Error Rate</text>
  <text x="660" y="140" fill="#10B981" font-family="sans-serif" font-size="32" font-weight="700">0.02</text>
  <text x="752" y="140" fill="#64748B" font-family="sans-serif" font-size="14">%</text>

  <!-- Row 2: Latency chart -->
  <rect x="16" y="172" width="620" height="170" rx="6" fill="#1E293B"/>
  <text x="32" y="194" fill="#E2E8F0" font-family="sans-serif" font-size="12" font-weight="600">LLM Call Latency by Provider</text>
  <!-- Y axis labels -->
  <text x="32" y="220" fill="#475569" font-family="sans-serif" font-size="9">400ms</text>
  <text x="32" y="260" fill="#475569" font-family="sans-serif" font-size="9">200ms</text>
  <text x="32" y="300" fill="#475569" font-family="sans-serif" font-size="9">100ms</text>
  <text x="32" y="330" fill="#475569" font-family="sans-serif" font-size="9">0</text>
  <!-- Grid lines -->
  <line x1="70" y1="216" x2="620" y2="216" stroke="#2D3748" stroke-width="0.5"/>
  <line x1="70" y1="256" x2="620" y2="256" stroke="#2D3748" stroke-width="0.5"/>
  <line x1="70" y1="296" x2="620" y2="296" stroke="#2D3748" stroke-width="0.5"/>
  <!-- Claude line -->
  <polyline points="70,260 120,255 170,250 220,262 270,248 320,242 370,250 420,238 470,245 520,235 570,230 610,228" stroke="#3B82F6" stroke-width="2" fill="none"/>
  <!-- GPT-4o line -->
  <polyline points="70,240 120,245 170,238 220,242 270,235 320,248 370,240 420,232 470,238 520,228 570,225 610,222" stroke="#8B5CF6" stroke-width="2" fill="none"/>
  <!-- Gemini line -->
  <polyline points="70,280 120,278 170,282 220,275 270,270 320,274 370,268 420,272 470,265 520,260 570,258 610,255" stroke="#06B6D4" stroke-width="2" fill="none"/>
  <!-- Legend -->
  <rect x="440" y="186" width="8" height="8" rx="2" fill="#3B82F6"/>
  <text x="454" y="194" fill="#94A3B8" font-family="sans-serif" font-size="10">Claude</text>
  <rect x="500" y="186" width="8" height="8" rx="2" fill="#8B5CF6"/>
  <text x="514" y="194" fill="#94A3B8" font-family="sans-serif" font-size="10">GPT-4o</text>
  <rect x="562" y="186" width="8" height="8" rx="2" fill="#06B6D4"/>
  <text x="576" y="194" fill="#94A3B8" font-family="sans-serif" font-size="10">Gemini</text>

  <!-- Row 2: Token usage panel -->
  <rect x="650" y="172" width="294" height="170" rx="6" fill="#1E293B"/>
  <text x="666" y="194" fill="#E2E8F0" font-family="sans-serif" font-size="12" font-weight="600">Token Usage (6h)</text>
  <!-- Stacked bars -->
  <text x="666" y="222" fill="#94A3B8" font-family="sans-serif" font-size="10">support-tier1</text>
  <rect x="770" y="212" width="140" height="14" rx="3" fill="#3B82F6"/>
  <rect x="770" y="212" width="90" height="14" rx="3" fill="#3B82F6" opacity="0.7"/>
  <text x="916" y="223" fill="#64748B" font-family="sans-serif" font-size="9">1.2M</text>

  <text x="666" y="248" fill="#94A3B8" font-family="sans-serif" font-size="10">sales-qualifier</text>
  <rect x="770" y="238" width="96" height="14" rx="3" fill="#8B5CF6"/>
  <text x="872" y="249" fill="#64748B" font-family="sans-serif" font-size="9">824K</text>

  <text x="666" y="274" fill="#94A3B8" font-family="sans-serif" font-size="10">onboarding-guide</text>
  <rect x="770" y="264" width="52" height="14" rx="3" fill="#06B6D4"/>
  <text x="828" y="275" fill="#64748B" font-family="sans-serif" font-size="9">360K</text>

  <text x="666" y="300" fill="#94A3B8" font-family="sans-serif" font-size="10">internal-helpdesk</text>
  <rect x="770" y="290" width="20" height="14" rx="3" fill="#F59E0B"/>
  <text x="796" y="301" fill="#64748B" font-family="sans-serif" font-size="9">48K</text>

  <!-- Row 3: Traces panel -->
  <rect x="16" y="354" width="928" height="170" rx="6" fill="#1E293B"/>
  <text x="32" y="376" fill="#E2E8F0" font-family="sans-serif" font-size="12" font-weight="600">Recent Traces — support-tier1</text>
  <!-- Trace header -->
  <text x="32" y="400" fill="#475569" font-family="sans-serif" font-size="10" font-weight="600">TRACE ID</text>
  <text x="180" y="400" fill="#475569" font-family="sans-serif" font-size="10" font-weight="600">DURATION</text>
  <text x="280" y="400" fill="#475569" font-family="sans-serif" font-size="10" font-weight="600">SPANS</text>
  <text x="360" y="400" fill="#475569" font-family="sans-serif" font-size="10" font-weight="600">WATERFALL</text>
  <!-- Trace 1 -->
  <text x="32" y="424" fill="#3B82F6" font-family="monospace" font-size="11">a3f8c2d1e5b7</text>
  <text x="180" y="424" fill="#E2E8F0" font-family="sans-serif" font-size="11">1.24s</text>
  <text x="280" y="424" fill="#E2E8F0" font-family="sans-serif" font-size="11">7</text>
  <rect x="360" y="414" width="200" height="14" rx="2" fill="#1a2332"/>
  <rect x="360" y="414" width="40" height="14" rx="2" fill="#3B82F6" opacity="0.6"/>
  <rect x="402" y="414" width="120" height="14" rx="2" fill="#3B82F6"/>
  <rect x="524" y="414" width="36" height="14" rx="2" fill="#06B6D4"/>
  <text x="570" y="424" fill="#64748B" font-family="sans-serif" font-size="9">tool:crm.lookup → llm:claude → tool:zendesk.reply</text>
  <!-- Trace 2 -->
  <text x="32" y="450" fill="#3B82F6" font-family="monospace" font-size="11">7b2e9f4a1c83</text>
  <text x="180" y="450" fill="#E2E8F0" font-family="sans-serif" font-size="11">0.87s</text>
  <text x="280" y="450" fill="#E2E8F0" font-family="sans-serif" font-size="11">4</text>
  <rect x="360" y="440" width="200" height="14" rx="2" fill="#1a2332"/>
  <rect x="360" y="440" width="140" height="14" rx="2" fill="#3B82F6"/>
  <rect x="502" y="440" width="30" height="14" rx="2" fill="#10B981"/>
  <text x="570" y="450" fill="#64748B" font-family="sans-serif" font-size="9">llm:claude → tool:resolve_ticket</text>
  <!-- Trace 3 -->
  <text x="32" y="476" fill="#3B82F6" font-family="monospace" font-size="11">d1c5e8f3a9b2</text>
  <text x="180" y="476" fill="#F59E0B" font-family="sans-serif" font-size="11">3.41s</text>
  <text x="280" y="476" fill="#E2E8F0" font-family="sans-serif" font-size="11">12</text>
  <rect x="360" y="466" width="200" height="14" rx="2" fill="#1a2332"/>
  <rect x="360" y="466" width="20" height="14" rx="2" fill="#3B82F6" opacity="0.5"/>
  <rect x="382" y="466" width="80" height="14" rx="2" fill="#3B82F6"/>
  <rect x="464" y="466" width="30" height="14" rx="2" fill="#F59E0B"/>
  <rect x="496" y="466" width="64" height="14" rx="2" fill="#8B5CF6"/>
  <text x="570" y="476" fill="#64748B" font-family="sans-serif" font-size="9">llm:claude → tool:escalate → llm:gpt4o → tool:handoff</text>
  <!-- Trace 4 -->
  <text x="32" y="502" fill="#3B82F6" font-family="monospace" font-size="11">e4a7b1c6d2f8</text>
  <text x="180" y="502" fill="#E2E8F0" font-family="sans-serif" font-size="11">0.62s</text>
  <text x="280" y="502" fill="#E2E8F0" font-family="sans-serif" font-size="11">3</text>
  <rect x="360" y="492" width="200" height="14" rx="2" fill="#1a2332"/>
  <rect x="360" y="492" width="100" height="14" rx="2" fill="#3B82F6"/>
  <rect x="462" y="492" width="24" height="14" rx="2" fill="#10B981"/>
  <text x="570" y="502" fill="#64748B" font-family="sans-serif" font-size="9">llm:claude → tool:kb.search</text>
</svg>
